<svg xmlns="http://www.w3.org/2000/svg" width="200" height="184" viewBox="0 0 200 184">
  <g id="Groupe_1261" data-name="Groupe 1261" transform="translate(-277 -35)">
    <rect id="Rectangle_130" data-name="Rectangle 130" width="200" height="184" transform="translate(277 35)" fill="#fff"/>
    <g id="Calque_2" data-name="Calque 2" transform="translate(304.559 84.828)">
      <g id="CAMPUS_METIERS" data-name="CAMPUS METIERS">
        <path id="Tracé_144" data-name="Tracé 144" d="M104.945,287.045h-3.376v6.417h3.465v-.939h-2.285v-1.9h2.079v-.937h-2.079v-1.711h2.2Zm-6.582,0H97.187v6.417h1.175Zm-3.9,0H90.43v.937h1.435v5.487h1.175v-5.487h1.424Zm-6.607,0H84.481v6.417h3.465v-.939H85.659v-1.9h2.079v-.937H85.659v-1.711h2.2Zm-2.207-.3h.717l.937-1.323H86.239Zm-8.751.3H75.144v6.417h1.068v-5.352h.017l1.536,5.352h.844l1.608-5.352h.019v5.352H81.3v-6.417H79.6l-1.353,4.79h-.017Zm-18.743,0h-1.18V291.2a2.189,2.189,0,1,0,4.366,0v-4.155H60.165V291.2c0,1.066-.329,1.416-1,1.416s-1.013-.35-1.013-1.416Zm-6.166.9a1.055,1.055,0,0,1,0,2.11h-.441v-2.11Zm.211-.9h-1.83v6.417h1.178v-2.511h.661a1.954,1.954,0,1,0,0-3.906m-17.3,3.971.882-3h.019l.808,3Zm.266-3.971-2.15,6.417h1.165l.46-1.545h2.207l.449,1.545h1.213l-2.068-6.417Zm-8.732,3.208c0,1.876,1,3.3,2.954,3.3a3.548,3.548,0,0,0,1.389-.23l-.063-1.074a2,2,0,0,1-1.213.329c-.975,0-1.813-.661-1.813-2.321s.844-2.321,1.813-2.321a2.439,2.439,0,0,1,1.213.35l.063-1.055a4.054,4.054,0,0,0-1.424-.266c-1.912,0-2.914,1.424-2.914,3.3m7.162-13.491h5.276V259.8q0-6.3-2.494-9.327a7.776,7.776,0,0,0-3.343-2.214,12.261,12.261,0,0,0-4.322-.817,11.54,11.54,0,0,0-9.416,4.93q-2.562-4.871-7.32-4.87a8.851,8.851,0,0,0-6.7,3.2v-2.657H0v28.723H5.288v-20.7A12.7,12.7,0,0,1,8.454,253.2a6.17,6.17,0,0,1,3.066-.766q2.98,0,4.14,1.857,1.222,1.918,1.222,6.576v15.894h5.276v-20.7q2.912-3.511,6.149-3.509a4.539,4.539,0,0,1,3.95,1.874,9.325,9.325,0,0,1,1.338,5.44Zm10.57,15.073-1.338-4.8H41.086v6.417h1.068v-5.352h.017l1.536,5.352h.844l1.61-5.352h.017v5.352h1.068v-6.417h-1.7l-1.353,4.79Zm5.012-33.015a8.19,8.19,0,0,1,2.38-4.5,6.322,6.322,0,0,1,4.689-1.83,5.749,5.749,0,0,1,4.512,1.83,6.784,6.784,0,0,1,1.876,4.5Zm-.118,4.932H67.931v-.743q0-8.019-2.743-11.495a10.824,10.824,0,0,0-8.952-3.967,11.244,11.244,0,0,0-8.992,4.09q-3.471,4.09-3.471,10.661a17.109,17.109,0,0,0,1.667,7.715,14.53,14.53,0,0,0,4.377,5.276,12.527,12.527,0,0,0,7.206,1.929,18.312,18.312,0,0,0,5.6-.713,20.249,20.249,0,0,0,4.883-2.5v-5.613a15.407,15.407,0,0,1-9.749,3.535,8.54,8.54,0,0,1-8.692-8.2M67.95,291.622a1.748,1.748,0,0,0-1.112-1.728l-.69-.384c-.359-.211-.679-.386-.679-.865,0-.441.3-.753.891-.753a3.033,3.033,0,0,1,1.2.276l.055-.985a4.218,4.218,0,0,0-1.342-.228,1.8,1.8,0,0,0-.966,3.433l.6.331c.57.312.844.515.844.975a.889.889,0,0,1-.975.929,2.63,2.63,0,0,1-1.359-.395l-.065,1.055a2.924,2.924,0,0,0,1.462.285,1.9,1.9,0,0,0,2.15-1.931m38.347-15.468H111.6V247.444h-5.288v20.7a12.772,12.772,0,0,1-3.165,2.859,6.178,6.178,0,0,1-3.066.768q-2.98,0-4.14-1.859Q94.72,268,94.72,263.339V247.444h-5.28v20.7q-2.91,3.509-6.147,3.509a4.547,4.547,0,0,1-3.952-1.872,9.286,9.286,0,0,1-1.336-5.44v-16.9H72.717v16.962q0,6.3,2.5,9.327a7.762,7.762,0,0,0,3.34,2.212,12.282,12.282,0,0,0,4.324.817,11.542,11.542,0,0,0,9.416-4.927q2.558,4.868,7.32,4.868a8.851,8.851,0,0,0,6.7-3.2Zm3.292,13.67h-.479v-1.9h.479c.661,0,1.055.184,1.055.92a.926.926,0,0,1-1.055.973m1.019.433v-.027a1.439,1.439,0,0,0,1.241-1.507c0-1.178-.772-1.688-1.912-1.688h-2v6.417h1.175V290.7h.268a.844.844,0,0,1,.891.671l.633,2.087h1.249l-.844-2.446c-.211-.6-.471-.709-.709-.745m6.12-3.317a1.8,1.8,0,0,0-.966,3.433l.6.331c.57.312.844.515.844.975a.889.889,0,0,1-.975.929,2.636,2.636,0,0,1-1.359-.395l-.065,1.055a2.929,2.929,0,0,0,1.462.285,1.9,1.9,0,0,0,2.15-1.931,1.748,1.748,0,0,0-1.112-1.728l-.69-.384c-.359-.211-.68-.386-.68-.865,0-.441.3-.753.893-.753a3.023,3.023,0,0,1,1.2.276l.055-.985a4.2,4.2,0,0,0-1.342-.228m22.848-25.03a9.527,9.527,0,0,1-2.5,6.837,8.457,8.457,0,0,1-6.4,2.7,8.37,8.37,0,0,1-6.457-2.64,10.732,10.732,0,0,1-.059-13.7,8.193,8.193,0,0,1,6.278-2.7,8.59,8.59,0,0,1,6.516,2.7,9.518,9.518,0,0,1,2.619,6.806m5.286.329a14.7,14.7,0,0,0-4-10.585,13.424,13.424,0,0,0-10.129-4.18,13.66,13.66,0,0,0-10.226,4.164,14.134,14.134,0,0,0-4.077,10.393,14.432,14.432,0,0,0,4.009,10.49,13.484,13.484,0,0,0,10.047,4.22,13.9,13.9,0,0,0,10.306-4.094,14.444,14.444,0,0,0,4.056-10.4" transform="translate(0 -195.224)" fill="#141215"/>
        <path id="Tracé_145" data-name="Tracé 145" d="M261.44,16.24V29.678l17.272-15.8V.09Z" transform="translate(-206.27 -0.071)" fill="#319f73"/>
        <path id="Tracé_146" data-name="Tracé 146" d="M179.9,0h0V42.4h9.38V22.373L179.9,0V0Z" transform="translate(-141.937)" fill="#005ca7"/>
        <path id="Tracé_147" data-name="Tracé 147" d="M360.562,74.05V60.61l-17.272,15.8V90.2Z" transform="translate(-270.848 -47.82)" fill="#d59991"/>
        <path id="Tracé_148" data-name="Tracé 148" d="M462.22,0V20.026L471.6,42.395V0Z" transform="translate(-364.68)" fill="#ea8000"/>
        <path id="Tracé_149" data-name="Tracé 149" d="M425.14,74.05l17.207,16.167-9.382-22.371L425.14,60.61Z" transform="translate(-335.425 -47.82)" fill="#5c0a17"/>
        <path id="Tracé_150" data-name="Tracé 150" d="M189.28,22.373l7.827,7.234V16.169L179.9,0Z" transform="translate(-141.937)" fill="#003067"/>
      </g>
    </g>
  </g>
</svg>